<svg width="400" height="400" viewBox="0 0 400 400" xmlns="http://www.w3.org/2000/svg">
  <defs>
    <!-- Main gradient for the rounded square background -->
    <linearGradient id="fluidGradLight" x1="0%" y1="0%" x2="0%" y2="100%">
      <stop offset="0%" style="stop-color:#303030;stop-opacity:1" />
      <stop offset="40%" style="stop-color:#101010;stop-opacity:1" />
      <stop offset="100%" style="stop-color:#000000;stop-opacity:1" />
    </linearGradient>
    
    <!-- Glossy highlight gradient -->
    <linearGradient id="highlightLight" x1="0%" y1="0%" x2="0%" y2="100%">
      <stop offset="0%" style="stop-color:#ffffff;stop-opacity:0.38" />
      <stop offset="100%" style="stop-color:#ffffff;stop-opacity:0" />
    </linearGradient>
    
    <!-- Drop shadow for depth -->
    <filter id="shadowLight">
      <feGaussianBlur in="SourceAlpha" stdDeviation="13"/>
      <feOffset dx="0" dy="16"/>
      <feComponentTransfer>
        <feFuncA type="linear" slope="0.38"/>
      </feComponentTransfer>
      <feMerge>
        <feMergeNode/>
        <feMergeNode in="SourceGraphic"/>
      </feMerge>
    </filter>
  </defs>
  
  <!-- Main logo group with drop shadow -->
  <g filter="url(#shadowLight)">
    <!-- Rounded square background - NO STROKE -->
    <rect x="75" y="75" width="250" height="250" rx="70" 
          fill="url(#fluidGradLight)"/>
    
    <!-- Glossy top highlight -->
    <rect x="75" y="75" width="250" height="125" rx="70" 
          fill="url(#highlightLight)"/>
    
    <!-- Fluid curved S with angular break points -->
    <path d="M 240 120 
             C 260 120, 270 130, 270 150
             L 270 165
             C 270 175, 265 180, 255 180
             L 170 180
             C 160 180, 155 185, 155 195
             L 155 205
             C 155 215, 160 220, 170 220
             L 255 220
             C 270 220, 280 230, 280 245
             L 280 265
             C 280 280, 265 290, 245 290
             L 160 290
             C 145 290, 135 280, 135 265
             L 135 255
             L 160 255
             L 160 265
             C 160 270, 165 275, 170 275
             L 240 275
             C 245 275, 250 270, 250 265
             L 250 250
             C 250 245, 245 240, 240 240
             L 155 240
             C 140 240, 130 230, 130 215
             L 130 190
             C 130 175, 145 165, 160 165
             L 245 165
             C 250 165, 255 160, 255 155
             L 255 145
             C 255 140, 250 135, 245 135
             L 160 135
             L 160 120 Z" 
          fill="#FFFFFF"
          opacity="0.95"/>
  </g>
</svg>